<svg width="56" height="78" viewBox="0 0 56 78" fill="none" xmlns="http://www.w3.org/2000/svg">
<path d="M16.3104 30.6067V16.9194C16.3104 11.869 20.4093 7.7701 25.4597 7.7701C30.5101 7.7701 34.609 11.869 34.609 16.9194V30.6067C39.0372 27.6423 41.9284 22.6285 41.9284 16.9194C41.9284 7.8067 34.5724 0.450684 25.4597 0.450684C16.347 0.450684 8.991 7.8067 8.991 16.9194C8.991 22.6285 11.8822 27.6423 16.3104 30.6067ZM52.322 47.5511L35.7069 39.2802C35.0847 39.024 34.426 38.8776 33.7306 38.8776H30.9493V16.9194C30.9493 13.8818 28.4973 11.4298 25.4597 11.4298C22.4221 11.4298 19.9701 13.8818 19.9701 16.9194V56.2247L7.41733 53.5897C7.12455 53.5531 6.86837 53.4799 6.53899 53.4799C5.40448 53.4799 4.37977 53.9556 3.64782 54.6876L0.756653 57.6154L18.8356 75.6943C19.8237 76.6824 21.2144 77.3046 22.7149 77.3046H47.5644C50.3091 77.3046 52.4318 75.2917 52.8343 72.6202L55.5791 53.3335C55.6157 53.0773 55.6523 52.8211 55.6523 52.6015C55.6523 50.3325 54.2616 48.3563 52.322 47.5511Z" fill="#FF8D23"/>
</svg>
