<svg width="67" height="60" viewBox="0 0 67 60" fill="none" xmlns="http://www.w3.org/2000/svg">
<path d="M58.6147 4.46633C57.8828 2.3071 55.8333 0.77002 53.4179 0.77002H13.1611C10.7457 0.77002 8.73285 2.3071 7.96431 4.46633L0.352112 26.388V55.6657C0.352112 57.6785 1.99898 59.3254 4.01182 59.3254H7.67153C9.68437 59.3254 11.3312 57.6785 11.3312 55.6657V52.006H55.2478V55.6657C55.2478 57.6785 56.8946 59.3254 58.9075 59.3254H62.5672C64.58 59.3254 66.2269 57.6785 66.2269 55.6657V26.388L58.6147 4.46633ZM13.1611 41.0268C10.1235 41.0268 7.67153 38.5748 7.67153 35.5373C7.67153 32.4997 10.1235 30.0477 13.1611 30.0477C16.1987 30.0477 18.6507 32.4997 18.6507 35.5373C18.6507 38.5748 16.1987 41.0268 13.1611 41.0268ZM53.4179 41.0268C50.3803 41.0268 47.9283 38.5748 47.9283 35.5373C47.9283 32.4997 50.3803 30.0477 53.4179 30.0477C56.4555 30.0477 58.9075 32.4997 58.9075 35.5373C58.9075 38.5748 56.4555 41.0268 53.4179 41.0268ZM7.67153 22.7283L13.1611 6.25958H53.4179L58.9075 22.7283H7.67153Z" fill="#FF8D23"/>
</svg>
