<svg width="247" height="242" viewBox="0 0 247 242" fill="none" xmlns="http://www.w3.org/2000/svg">
<g clip-path="url(#clip0)">
<path d="M156.806 54.2232H90.25C88.7333 54.2251 87.2793 54.8284 86.2068 55.9009C85.1343 56.9733 84.531 58.4274 84.5292 59.944V207.865L83.7664 208.098L67.4392 213.098C66.6654 213.334 65.8296 213.253 65.1153 212.873C64.401 212.493 63.8665 211.846 63.6292 211.072L15.0633 52.4345C14.827 51.6607 14.9075 50.8248 15.2873 50.1103C15.667 49.3959 16.3149 48.8615 17.0885 48.6245L42.2487 40.9205L115.189 18.5941L140.349 10.8901C140.732 10.7722 141.134 10.731 141.533 10.7689C141.932 10.8067 142.319 10.9228 142.673 11.1106C143.027 11.2983 143.34 11.554 143.595 11.863C143.85 12.172 144.042 12.5283 144.159 12.9114L156.573 53.4605L156.806 54.2232Z" fill="#F2F2F2"/>
<path d="M171.329 53.4611L156.368 4.59023C156.119 3.77594 155.712 3.01869 155.17 2.36175C154.628 1.7048 153.963 1.16103 153.211 0.76151C152.459 0.361991 151.635 0.114549 150.788 0.0333333C149.94 -0.0478826 149.085 0.0387192 148.271 0.288181L112.897 11.1158L39.9608 33.446L4.5872 44.2774C2.94393 44.7819 1.56799 45.9179 0.761411 47.4359C-0.0451695 48.954 -0.216498 50.73 0.285038 52.3742L51.4214 219.395C51.8289 220.722 52.6509 221.884 53.767 222.71C54.8832 223.535 56.2345 223.982 57.6229 223.983C58.2655 223.983 58.9044 223.887 59.5183 223.697L83.7669 216.275L84.5296 216.039V215.242L83.7669 215.474L59.2933 222.969C57.8428 223.411 56.2762 223.26 54.937 222.548C53.5979 221.837 52.5956 220.623 52.1499 219.174L1.01746 52.1492C0.796668 51.431 0.719718 50.6763 0.791009 49.9283C0.8623 49.1804 1.08043 48.4538 1.43291 47.7903C1.7854 47.1267 2.26532 46.5393 2.84518 46.0615C3.42504 45.5836 4.09345 45.2249 4.81215 45.0058L40.1858 34.1744L113.122 11.848L148.496 1.01664C149.041 0.850276 149.608 0.765452 150.178 0.76492C151.401 0.767667 152.591 1.162 153.574 1.89017C154.557 2.61834 155.281 3.64208 155.639 4.81144L170.532 53.4612L170.769 54.2239H171.562L171.329 53.4611Z" fill="#3F3D56"/>
<path d="M46.789 48.7491C46.0539 48.7486 45.3384 48.5125 44.7473 48.0755C44.1562 47.6385 43.7207 47.0236 43.5048 46.3209L38.5924 30.2753C38.4604 29.8443 38.4145 29.3915 38.4576 28.9428C38.5006 28.4941 38.6315 28.0582 38.843 27.6601C39.0545 27.2621 39.3423 26.9095 39.6901 26.6227C40.0378 26.3359 40.4386 26.1203 40.8697 25.9884L107.971 5.4455C108.841 5.17987 109.781 5.27047 110.585 5.69739C111.389 6.12431 111.99 6.85269 112.258 7.72265L117.17 23.7685C117.435 24.6389 117.345 25.5792 116.918 26.3829C116.491 27.1866 115.763 27.7881 114.893 28.0555L47.7918 48.5985C47.4669 48.6982 47.1289 48.749 46.789 48.7491Z" fill="#F9A826"/>
<path d="M72.522 17.1451C76.7347 17.1451 80.1498 13.7301 80.1498 9.51739C80.1498 5.3047 76.7347 1.88965 72.522 1.88965C68.3093 1.88965 64.8943 5.3047 64.8943 9.51739C64.8943 13.7301 68.3093 17.1451 72.522 17.1451Z" fill="#F9A826"/>
<path d="M72.522 14.3475C75.1896 14.3475 77.3521 12.185 77.3521 9.51738C77.3521 6.84978 75.1896 4.68726 72.522 4.68726C69.8544 4.68726 67.6919 6.84978 67.6919 9.51738C67.6919 12.185 69.8544 14.3475 72.522 14.3475Z" fill="white"/>
<path d="M229.838 222.034H100.929C100.069 222.033 99.2453 221.691 98.6376 221.083C98.0299 220.475 97.688 219.651 97.687 218.792V64.33C97.688 63.4706 98.0298 62.6466 98.6376 62.0388C99.2453 61.4311 100.069 61.0892 100.929 61.0883H229.838C230.697 61.0892 231.521 61.4311 232.129 62.0388C232.737 62.6466 233.078 63.4706 233.079 64.33V218.792C233.078 219.651 232.736 220.475 232.129 221.083C231.521 221.691 230.697 222.033 229.838 222.034Z" fill="#E6E6E6"/>
<path d="M170.532 53.4603H90.2499C88.5311 53.4628 86.8834 54.1466 85.668 55.362C84.4527 56.5774 83.7688 58.2251 83.7664 59.9439V215.474L84.5291 215.241V59.9439C84.531 58.4272 85.1343 56.9732 86.2068 55.9007C87.2792 54.8283 88.7333 54.2249 90.2499 54.2231H170.768L170.532 53.4603ZM240.516 53.4603H90.2499C88.5311 53.4628 86.8834 54.1466 85.668 55.362C84.4527 56.5774 83.7688 58.2251 83.7664 59.9439V234.619C83.7688 236.338 84.4527 237.986 85.668 239.201C86.8834 240.416 88.5311 241.1 90.2499 241.103H240.516C242.235 241.1 243.883 240.416 245.098 239.201C246.314 237.986 246.998 236.338 247 234.619V59.9439C246.998 58.2251 246.314 56.5774 245.098 55.362C243.883 54.1466 242.235 53.4628 240.516 53.4603ZM246.237 234.619C246.235 236.136 245.632 237.59 244.56 238.662C243.487 239.735 242.033 240.338 240.516 240.34H90.2499C88.7333 240.338 87.2792 239.735 86.2068 238.662C85.1343 237.59 84.531 236.136 84.5291 234.619V59.9439C84.531 58.4272 85.1343 56.9732 86.2068 55.9007C87.2792 54.8283 88.7333 54.2249 90.2499 54.2231H240.516C242.033 54.2249 243.487 54.8283 244.56 55.9007C245.632 56.9732 246.235 58.4272 246.237 59.9439V234.619Z" fill="#3F3D56"/>
<path d="M200.471 70.2416H130.296C129.385 70.2405 128.513 69.8786 127.87 69.2351C127.226 68.5916 126.864 67.7191 126.863 66.8091V50.0281C126.864 49.118 127.226 48.2456 127.87 47.6021C128.513 46.9586 129.385 46.5966 130.296 46.5956H200.471C201.381 46.5966 202.253 46.9586 202.897 47.6021C203.54 48.2456 203.902 49.118 203.903 50.0281V66.8091C203.902 67.7191 203.54 68.5916 202.897 69.2351C202.253 69.8786 201.381 70.2405 200.471 70.2416Z" fill="#F9A826"/>
<path d="M165.383 47.7396C169.596 47.7396 173.011 44.3246 173.011 40.1119C173.011 35.8992 169.596 32.4841 165.383 32.4841C161.17 32.4841 157.755 35.8992 157.755 40.1119C157.755 44.3246 161.17 47.7396 165.383 47.7396Z" fill="#F9A826"/>
<path d="M165.383 44.7578C167.949 44.7578 170.029 42.6777 170.029 40.1118C170.029 37.5459 167.949 35.4658 165.383 35.4658C162.817 35.4658 160.737 37.5459 160.737 40.1118C160.737 42.6777 162.817 44.7578 165.383 44.7578Z" fill="white"/>
</g>
<defs>
<clipPath id="clip0">
<rect width="247" height="241.103" fill="white"/>
</clipPath>
</defs>
</svg>
